<svg xmlns="http://www.w3.org/2000/svg" version="1.1" xmlns:xlink="http://www.w3.org/1999/xlink" xmlns:svgjs="http://svgjs.dev/svgjs" width="100%" height="100%" viewBox="0 0 1000 600"><rect width="1000" height="600" x="0" y="0" fill="#2f3c7e"/><g><rect width="333.3333333333333" height="333.3333333333333" rx="13.333333333333334" ry="13.333333333333334" y="198.59896302037723" fill="#fbeaeb" transform="matrix(0.7087102682717955,0,0,0.7087102682717954,0,41.13249545941359)" x="176.37681579589844"/><path d="M268.3179533327457 424.5134289776596L268.3179533327457 424.5134289776596Q267.0140703734312 424.5134289776596 265.6841097549303 424.5134289776596Q264.38022679561584 424.5134289776596 263.07634383630125 424.33088536335555L263.07634383630125 424.33088536335555Q254.99226948855113 423.5746332469531 248.13384512255666 419.6369067098232Q241.2754207565622 415.6991801726933 237.0508399683831 408.6582121923948Q232.82625918020398 401.6172442120963 232.82625918020398 392.0467432907276L232.82625918020398 392.0467432907276Q232.82625918020398 389.2303560986082 233.29565704555722 386.0228040186944Q233.76505491091046 382.84132959796693 234.70385064161692 379.45123390374914L234.70385064161692 379.45123390374914Q236.58144210302984 372.87966378880384 241.19718777900331 366.9861128127021Q245.78685579579047 361.06648417741417 252.5409695250398 356.92013636679394L252.5409695250398 356.92013636679394Q249.35949510431232 351.8610704846535 247.7687578939486 346.04575248611064Q246.17802068358486 340.23043448756783 246.17802068358486 334.3890388298387L246.17802068358486 334.3890388298387Q246.17802068358486 326.6961293698829 248.8900972389591 319.6551613895844Q251.60217379433334 312.6141934092859 257.23494817857215 307.73767114144954L257.23494817857215 307.73767114144954Q264.38022679561584 301.3486446408083 272.72507773522887 298.71480106299293Q281.0960063340282 296.10703514436386 289.91025513899444 296.10703514436386L289.91025513899444 296.10703514436386Q299.1156688317551 296.10703514436386 308.3993155020746 298.2454031976397Q317.7090398315804 300.4098489101018 326.3407450222427 303.69563396757445Q334.97245021290496 306.9814190250471 342.30027244425264 310.3715147192649Q349.6280946756003 313.7355327542964 354.86970417204475 316.0042891035037L354.86970417204475 316.0042891035037Q362.19752640339243 308.85901048646 368.8734071550829 306.22516690864467Q375.52321024758703 303.6174009900156 380.7908974032178 303.6174009900156L380.7908974032178 303.6174009900156Q384.7286239403477 303.6174009900156 387.4667781549082 304.63442969828094Q390.17885471028245 305.67753606573257 391.482737669597 307.1639626393511L391.482737669597 307.1639626393511Q392.4215334003035 308.1027583700576 392.4215334003035 309.4327189885584L392.4215334003035 309.4327189885584Q392.4215334003035 310.73660194787294 391.482737669597 310.73660194787294L391.482737669597 310.73660194787294Q390.7525632123809 310.73660194787294 389.9963110959784 309.79780621716645L389.9963110959784 309.79780621716645Q387.9361760202614 307.1639626393511 385.3023324424461 306.14693393108575Q382.6684888646307 305.1038275636341 379.85210167251137 305.1038275636341L379.85210167251137 305.1038275636341Q373.6456187861741 305.1038275636341 367.178359307974 308.9633211232052Q360.7110998297739 312.7967370235899 356.955916906948 316.94308483421014L356.955916906948 316.94308483421014Q361.44127428699005 318.4295114078287 368.01284440193535 320.2288698916828Q374.5844145168806 322.00215071635057 382.09478036253233 323.3321113348514Q389.60514620818407 324.6359942941659 396.9329684395318 324.6359942941659L396.9329684395318 324.6359942941659Q405.1995864015859 324.6359942941659 412.24055438188446 322.4715485817038Q419.28152236218295 320.3071028692417 423.6104137871072 314.49178487069884L423.6104137871072 314.49178487069884Q424.91429674642177 313.0053582970803 425.8530924771282 313.0053582970803L425.8530924771282 313.0053582970803Q426.7918882078347 313.0053582970803 426.7918882078347 314.1266976420908L426.7918882078347 314.1266976420908Q426.7918882078347 315.2480369871013 425.8530924771282 316.18683271780776L425.8530924771282 316.18683271780776Q421.7328223256943 320.8808113713401 414.01383520655224 324.06228579206754Q406.32092574659646 327.26983787198134 394.6902897495108 327.26983787198134L394.6902897495108 327.26983787198134Q386.60621540176066 327.26983787198134 376.8531708660879 325.39224641056836Q367.07404867122887 323.51465494915544 355.26086905983914 319.18576352423116L355.26086905983914 319.18576352423116Q352.2619382534157 322.57585921844895 348.976153195943 328.5737208312959Q345.69036813847043 334.597660103329 342.873980946351 341.0649195815291Q340.05759375423156 347.53217905972923 338.0756916560735 352.79986621536Q336.09378955791544 358.0675533709907 335.72870232930734 359.7365235589133L335.72870232930734 359.7365235589133L335.15499382720895 362.0052799081206Q337.0325852886219 362.18782352242465 338.7276331357308 362.2921341591698Q340.42268098283967 362.37036713672865 342.1177288299486 362.37036713672865L342.1177288299486 362.37036713672865Q345.69036813847043 362.37036713672865 348.5849883081487 361.61411502032627Q351.50568613701324 360.8839405631101 353.5658212127302 358.79772782820686L353.5658212127302 358.79772782820686Q354.5046169434367 357.8589320975004 355.44341267414313 357.8589320975004L355.44341267414313 357.8589320975004Q357.13846052125206 357.8589320975004 357.13846052125206 359.37143633030524L357.13846052125206 359.37143633030524Q357.13846052125206 360.1276884467077 356.3822084048496 360.8839405631101L356.3822084048496 360.8839405631101Q354.5046169434367 362.9440756388271 351.3231425227092 363.7785607327884Q348.11559044279545 364.639123485936 344.36040751996956 364.639123485936L344.36040751996956 364.639123485936Q341.93518521564454 364.639123485936 339.4838852521332 364.35226923488676Q337.0325852886219 364.06541498383757 334.4248193699928 363.8828713695335L334.4248193699928 363.8828713695335Q326.70583225085073 386.59651252079277 315.7271377334223 399.92219636498737Q304.7484432159939 413.247880209182 292.5440987168098 418.8806545934208Q280.33975421762574 424.5134289776596 268.3179533327457 424.5134289776596ZM265.31902252632227 421.51449817123614L265.31902252632227 421.51449817123614Q275.82831917839746 421.51449817123614 284.9294222344129 416.1685780380465Q294.05660294961467 410.8226579048569 301.6452017728253 402.1909527141947Q309.2598782552222 393.5331698643462 315.5445941191183 383.206416826575Q321.82930998301435 372.87966378880384 326.70583225085073 362.9440756388271L326.70583225085073 362.9440756388271Q322.22047487080874 362.37036713672865 317.7090398315804 362.37036713672865L317.7090398315804 362.37036713672865Q311.3200133309392 362.37036713672865 306.2609474487988 364.06541498383757L306.2609474487988 364.06541498383757Q305.8697825610044 364.2479585981416 305.50469533239635 364.2479585981416L305.50469533239635 364.2479585981416Q304.9309868302979 364.2479585981416 304.9309868302979 363.7003277552295L304.9309868302979 363.7003277552295Q304.9309868302979 362.76153202452304 306.05232617530845 362.18782352242465L306.05232617530845 362.18782352242465Q308.6861697531238 361.06648417741417 311.68510055954727 360.5970863120609Q314.71010902515695 360.1276884467077 317.7090398315804 360.1276884467077L317.7090398315804 360.1276884467077Q320.34288340939577 360.1276884467077 322.872416350466 360.3102320610117Q325.4019492915362 360.4927756753157 327.85324925504756 360.8839405631101L327.85324925504756 360.8839405631101Q332.7297715228839 350.922274753947 336.3806438089646 342.94251104294204Q340.05759375423156 334.96274733193707 342.48281605855664 331.2075644091112L342.48281605855664 331.2075644091112Q347.56795959988335 323.3321113348514 352.6270254820238 318.24696779352473L352.6270254820238 318.24696779352473Q346.23799898138253 315.82174548919966 336.0155565803566 312.32733915823667Q325.7670365201443 308.85901048646 313.8495462720094 306.14693393108575Q301.9320560238745 303.40877971652526 290.4839636410928 303.40877971652526L290.4839636410928 303.40877971652526Q281.8522584504306 303.40877971652526 274.23758196803374 305.4949924514285Q266.6229054856368 307.5551275271455 260.807587487094 312.43164979498187L260.807587487094 312.43164979498187Q255.93106521925762 316.5519199464158 253.21898866388335 323.41034431241025Q250.48083444932283 330.26876867840474 250.48083444932283 337.7791345240565L250.48083444932283 337.7791345240565Q250.48083444932283 342.4731131775888 251.60217379433334 346.98454821681713Q252.74959079853014 351.4959832560454 255.17481310285518 355.43370979317535L255.17481310285518 355.43370979317535Q263.8065182935174 350.922274753947 272.64684475767 350.922274753947L272.64684475767 350.922274753947Q279.4009584869193 350.922274753947 285.2162764854621 354.1037491746745Q291.031594484005 357.3113012545883 294.05660294961467 364.82166710024L294.05660294961467 364.82166710024Q298.75058160314705 362.37036713672865 302.11459963817856 358.53695123634395Q305.50469533239635 354.6774576767729 306.62603467740684 349.22722690683815L306.62603467740684 349.22722690683815Q306.9911219060149 347.9233439475236 307.92991763672137 347.9233439475236L307.92991763672137 347.9233439475236Q308.86871336742786 347.9233439475236 308.50362613881975 349.6183917946325L308.50362613881975 349.6183917946325Q306.62603467740684 356.3725055238818 303.05339536888505 360.6753192896198Q299.4807560603632 365.00421071454406 295.1779422946252 367.45551067805536L295.1779422946252 367.45551067805536Q296.48182525393975 371.3932372151853 296.48182525393975 375.51350736661925L296.48182525393975 375.51350736661925Q296.48182525393975 382.84132959796693 292.83095296785905 389.04781248430413Q289.15400302259206 395.22821771145504 283.15614140974515 398.905167656722Q277.1582797968983 402.5560399428027 270.0130011798546 402.5560399428027L270.0130011798546 402.5560399428027Q267.0140703734312 402.5560399428027 263.5457417016545 401.04353570999785Q260.0513353706915 399.5571091363793 258.564908797073 397.6795176749664L258.564908797073 397.6795176749664Q257.80865668067054 396.9232655585639 257.80865668067054 395.9844698278575L257.80865668067054 395.9844698278575Q257.80865668067054 395.045674097151 258.564908797073 395.045674097151L258.564908797073 395.045674097151Q259.68624814208346 395.045674097151 260.990131101398 396.55817832995587L260.990131101398 396.55817832995587Q262.50263533420286 398.2271485178785 265.8927310284207 399.16594424858494Q269.25674906345216 400.1047399792914 271.7080490269635 400.1047399792914L271.7080490269635 400.1047399792914Q277.1582797968983 400.1047399792914 281.8522584504306 396.6364113075147Q286.54623710396294 393.1680826357381 289.4408572736412 387.53530825149926Q292.3615551025058 381.90253386726044 292.3615551025058 375.69605098092325L292.3615551025058 375.69605098092325Q292.3615551025058 372.5145765601958 291.4227593717993 369.124480865978L291.4227593717993 369.124480865978Q288.4238285653759 370.27189787017477 285.39882009976617 370.741295735528Q282.3998892933427 371.21069360088126 279.4009584869193 371.21069360088126L279.4009584869193 371.21069360088126Q275.82831917839746 371.21069360088126 272.64684475767 370.6369850987829L272.64684475767 370.6369850987829Q261.7463832178004 368.39430640876185 254.99226948855113 360.3102320610117L254.99226948855113 360.3102320610117Q250.66337806362685 363.8828713695335 247.4819036428994 369.124480865978Q244.3004292221719 374.3921680216087 242.21421648726866 380.3900296344556L242.21421648726866 380.3900296344556Q241.09287714225815 383.7801253286734 240.6234792769049 386.9615997494009Q240.1540814115517 390.1691518293146 240.1540814115517 393.1680826357381L240.1540814115517 393.1680826357381Q240.1540814115517 401.43470059779224 243.5441771057695 407.8237270984335Q246.908195140801 414.18667593988846 252.64528016178497 417.86362588515544Q258.3823651827689 421.51449817123614 265.31902252632227 421.51449817123614ZM278.2796191419088 368.94193725167395L278.2796191419088 368.94193725167395Q281.2785499483322 368.94193725167395 284.4600243690597 368.39430640876185Q287.6675764489735 367.82059790666347 290.66650725539694 366.51671494734893L290.66650725539694 366.51671494734893Q288.2152072918856 359.7365235589133 283.3386850240492 356.55504913818584Q278.4621627562128 353.3735747174584 272.64684475767 353.3735747174584L272.64684475767 353.3735747174584Q264.56277040991984 353.3735747174584 257.23494817857215 358.6151842139028L257.23494817857215 358.6151842139028Q259.8687917563875 362.0052799081206 263.8065182935174 364.5348128491908Q267.7703224898336 367.06434579026103 273.01193198627806 368.39430640876185L273.01193198627806 368.39430640876185Q275.6457755640934 368.94193725167395 278.2796191419088 368.94193725167395ZM392.2389897859995 440.10786917106145L392.2389897859995 440.10786917106145Q384.3635367117396 437.4740255932461 380.6865867664726 432.1281054600565Q377.0357144803919 426.78218532686685 376.4620059782935 418.6981109791167L376.4620059782935 418.6981109791167Q366.52641782831677 415.8817237869973 360.4242455787247 410.2489494027585Q354.32207332913265 404.6161750185197 351.58391911457215 397.21011980961316Q348.8718425591979 389.7779869415203 348.8718425591979 381.71999025295645L348.8718425591979 381.71999025295645Q348.8718425591979 372.6971201744998 352.34017123097453 364.89990007779886Q355.80849990275124 357.1287576402842 361.72812853803924 351.1048183682511Q367.64775717332725 345.1069567554042 375.0538123822338 341.71686106118636Q382.4859452503267 338.3528430261549 390.3613983245865 338.3528430261549L390.3613983245865 338.3528430261549Q395.9941727088253 338.3528430261549 401.5487141155053 340.23043448756783Q407.07717786299884 342.10802594898075 412.13624374513927 346.2282961004147L412.13624374513927 346.2282961004147Q418.70781386008457 339.29163875686135 425.2011509974709 333.1894665072693Q431.66841047567107 327.0872942576773 437.11864124560583 320.8808113713401L437.11864124560583 320.8808113713401Q436.3623891292034 318.0644241792207 435.5279040352421 315.0654933727972Q434.6673412820945 312.0665625663738 434.11971043918237 308.493923257852L434.11971043918237 308.493923257852Q433.9371668248784 307.9202147557536 433.9371668248784 307.2682732760963Q433.9371668248784 306.616331796439 433.9371668248784 305.8600796800366L433.9371668248784 305.8600796800366Q433.9371668248784 302.2874403715148 435.3453604209381 298.71480106299293Q436.7535540169978 295.1682394136574 439.36131993562685 292.716939450146Q441.9951635134422 290.2656394866347 445.7503464362681 290.2656394866347L445.7503464362681 290.2656394866347Q446.3240549383665 290.2656394866347 446.9759964180237 290.3699501233799Q447.627937897681 290.47426076012505 448.38419001408346 290.65680437442904L448.38419001408346 290.65680437442904Q452.7130814390077 291.59560010513553 452.7130814390077 297.22837448937435L452.7130814390077 297.22837448937435Q452.7130814390077 301.16610102650424 450.2617814754964 306.0426232943406L450.2617814754964 306.0426232943406Q448.7492772426915 309.25017537425435 446.68914216697453 312.2491061806778Q444.62900709125756 315.2480369871013 442.17770712774626 318.24696779352473L442.17770712774626 318.24696779352473Q447.262850669073 331.2075644091112 450.2617814754964 342.4731131775888Q453.26071228191984 353.73866194606643 453.26071228191984 364.82166710024L453.26071228191984 364.82166710024Q453.26071228191984 377.5736424423362 448.2798793773383 387.90039548010736Q443.325124131943 398.2271485178785 434.6673412820945 405.5549707492262Q426.03563609143225 412.88279298057387 415.161252210749 416.8205195177038Q404.2607906708795 420.7582460548337 392.4215334003035 420.7582460548337L392.4215334003035 420.7582460548337Q389.240058979576 420.7582460548337 385.84996328535817 420.4974694629708Q382.4859452503267 420.2106152119216 379.27839317041287 419.45436309551917L379.27839317041287 419.45436309551917Q380.21718890111936 428.08606828618144 384.4417696892985 432.23241609680167Q388.66635047747764 436.3526862482356 392.81269828809786 437.4740255932461L392.81269828809786 437.4740255932461Q394.6902897495108 438.0477340953445 394.6902897495108 439.16907344035496L394.6902897495108 439.16907344035496Q394.6902897495108 440.68157767315984 392.2389897859995 440.10786917106145ZM441.4475326705301 315.82174548919966L441.4475326705301 315.82174548919966Q443.5076677462471 313.1879019113843 445.28094857091486 310.44974769682375Q447.0803070547689 307.73767114144954 448.38419001408346 304.7387403350261L448.38419001408346 304.7387403350261Q450.83548997759476 300.04476168149375 450.83548997759476 297.0458308750703L450.83548997759476 297.0458308750703Q450.83548997759476 294.594530911559 449.32298574478995 294.0208224094606L449.32298574478995 294.0208224094606Q448.7492772426915 293.6557351808525 447.262850669073 293.6557351808525L447.262850669073 293.6557351808525Q445.38525920766006 293.6557351808525 443.325124131943 295.3507830279614Q441.2389113970398 297.0458308750703 439.7524848234212 301.7398095286027L439.7524848234212 301.7398095286027Q439.1787763213228 303.6174009900156 439.1787763213228 305.4949924514285L439.1787763213228 305.4949924514285Q439.1787763213228 307.9202147557536 439.83071780098004 310.44974769682375Q440.5087369398236 313.0053582970803 441.4475326705301 315.82174548919966ZM391.300194055293 417.75931524841025L391.300194055293 417.75931524841025Q402.2006555951625 417.75931524841025 412.4230979961885 412.7002493662699Q422.67161805640075 407.61510582494316 430.26021687961133 399.4527984996341Q437.87489336200827 391.29049117432515 441.0563677827357 381.5374466386524L441.0563677827357 381.5374466386524Q442.75141562984464 376.26975948302163 443.5076677462471 370.81952871308687Q444.2639198626495 365.3692979431521 444.2639198626495 359.5539799446093L444.2639198626495 359.5539799446093Q444.2639198626495 350.739731139643 442.5688720155406 341.4300068101372Q440.8738241684317 332.14636013981766 437.87489336200827 323.3321113348514L437.87489336200827 323.3321113348514Q432.60720620637755 329.14742933339426 426.42680097922664 335.06705796868226Q420.22031809288944 340.960608944784 413.8312915922482 347.74080033321957L413.8312915922482 347.74080033321957Q417.221387286466 350.922274753947 418.91643513357485 355.61625340747935Q420.5854053214975 360.3102320610117 420.5854053214975 365.1867543288481L420.5854053214975 365.1867543288481Q420.5854053214975 373.0882850622942 416.8302223986716 379.0861466751411L416.8302223986716 379.0861466751411Q413.2836607493361 384.9014646736839 406.7120906343908 388.3697933454606Q400.14052051944554 391.86419967642354 393.1777855167059 391.86419967642354L393.1777855167059 391.86419967642354Q391.11765044098894 391.86419967642354 389.1357483428308 391.4730347886292Q387.17992390385905 391.1079475600211 385.3023324424461 390.5342390579227L385.3023324424461 390.5342390579227Q382.8510324789347 396.3495570564655 380.97344101752185 403.02543780815597Q379.0958495561089 409.7013185598464 379.0958495561089 415.8817237869973L379.0958495561089 415.8817237869973Q384.7286239403477 417.75931524841025 391.300194055293 417.75931524841025ZM376.4620059782935 415.1254716705949L376.4620059782935 415.1254716705949Q376.6706272517838 408.3713579413456 378.62645169075563 402.0866420774495Q380.60835378891375 395.80192621355343 383.0335760932388 389.59544332721623L383.0335760932388 389.59544332721623Q379.27839317041287 387.53530825149926 377.400801709 384.3538338307718Q375.52321024758703 381.14628175085807 375.52321024758703 377.96480733013055L375.52321024758703 377.96480733013055Q375.52321024758703 372.33203294589174 380.03464528681536 369.51564575377233L380.03464528681536 369.51564575377233Q380.97344101752185 368.94193725167395 381.3646059053162 368.94193725167395L381.3646059053162 368.94193725167395Q381.9122367482283 368.94193725167395 381.9122367482283 369.51564575377233L381.9122367482283 369.51564575377233Q381.9122367482283 370.06327659668443 380.97344101752185 371.0020723273909L380.97344101752185 371.0020723273909Q377.79196659679434 373.8184595195103 377.79196659679434 377.7822637158265L377.79196659679434 377.7822637158265Q377.79196659679434 383.7801253286734 383.7898282096412 387.1702210228912L383.7898282096412 387.1702210228912Q388.8749717509679 375.3309637523152 395.70731845777607 365.83869580850535Q402.5657428237706 356.3725055238818 409.8935650551183 348.67959606392606L409.8935650551183 348.67959606392606Q405.1995864015859 344.92441314110016 400.40129711130845 343.22936529399124Q395.6290854802172 341.53431744688237 390.7525632123809 341.53431744688237L390.7525632123809 341.53431744688237Q381.3646059053162 341.53431744688237 372.9936773065168 347.1670918311212Q364.6488263669038 352.79986621536 359.5636828255771 362.0052799081206Q354.5046169434367 371.21069360088126 354.5046169434367 382.0850774815645L354.5046169434367 382.0850774815645Q354.5046169434367 388.8391912108138 356.3822084048496 395.3325283482002Q358.2597998662626 401.79978782640035 363.05808915654006 406.96316434528586Q367.83030078763124 412.1265408641715 376.4620059782935 415.1254716705949ZM392.05644617169537 389.41289971291224L392.05644617169537 389.41289971291224Q397.87176417023824 389.41289971291224 404.15648003413435 386.1271146554396Q410.4672735572167 382.84132959796693 413.8312915922482 377.2085552137281L413.8312915922482 377.2085552137281Q417.038843672162 371.9408680580974 417.038843672162 365.3692979431521L417.038843672162 365.3692979431521Q417.038843672162 361.24902779171816 415.63065007610226 357.2069906178431Q414.2224564800425 353.16495344396805 411.4060692879232 350.1660226375446L411.4060692879232 350.1660226375446Q404.4433342851835 357.8589320975004 397.7935311926793 367.16865642700617Q391.11765044098894 376.4523030973257 386.0585845588485 388.2915603679017L386.0585845588485 388.2915603679017Q388.66635047747764 389.41289971291224 392.05644617169537 389.41289971291224Z " fill="#2f3c7e" transform="matrix(0.7087102682717955,0,0,0.7087102682717954,0,41.13249545941359)"/><path d="M620.6019621969988 440.26563606207714L620.6019621969988 440.26563606207714Q612.8777908293499 440.26563606207714 606.5668747907977 436.95179598005745Q600.2315922810542 433.6135894268464 596.6497210159298 427.4732386866334Q593.0434832796143 421.33288794642044 593.0434832796143 413.0726542125625L593.0434832796143 413.0726542125625Q593.0434832796143 409.75881413054276 593.6526450593974 406.3231416925665Q594.2861733103717 402.9118357257815 595.5044968699378 399.0375668063614L595.5044968699378 399.0375668063614Q598.477206355279 390.4605689470162 604.544457681918 383.4430252439157Q610.5873425373657 376.42548154081516 618.5795450881192 372.21008202471654Q626.5473811676812 367.9946825086179 635.1487454982176 367.9946825086179L635.1487454982176 367.9946825086179Q645.5044957545292 367.9946825086179 650.1584917520717 373.96446795049167Q654.812487749614 379.9342533923654 654.812487749614 387.634058288823L654.812487749614 387.634058288823Q654.812487749614 393.9693407985665 651.9128776778468 400.28025683711877Q649.0132676060796 406.591172875671 643.5795445304149 410.7091065070043Q638.1458214547501 414.8270401383376 630.5922153854406 414.8270401383376L630.5922153854406 414.8270401383376Q627.7900711984387 414.8270401383376 625.8651199743242 413.7792818771108Q623.9158022790185 412.731523615884 623.5746716823401 411.51320005631794L623.5746716823401 411.51320005631794Q623.4041063840008 411.3182682867873 623.4041063840008 410.8065723917696L623.4041063840008 410.8065723917696Q623.4041063840008 409.92937942888204 624.1838334621231 409.83191354411673Q624.9879270114366 409.75881413054276 625.158492309776 410.63600709343035L625.158492309776 410.63600709343035Q625.8651199743242 412.9020889142232 630.7627806837797 412.9020889142232L630.7627806837797 412.9020889142232Q636.7325661256535 412.9020889142232 641.386562123196 408.8816211676552Q646.0405581207383 404.8367869498959 648.672137009401 398.7939020944482Q651.3037158980637 392.72665076780913 651.3037158980637 386.7568653259354L651.3037158980637 386.7568653259354Q651.3037158980637 380.10481869070463 647.4294469786437 375.0122262117185Q643.5795445304149 369.91963373273234 634.8076149015392 369.91963373273234L634.8076149015392 369.91963373273234Q626.0356852726634 369.91963373273234 618.9206756847976 374.2324991335962Q611.8300325681231 378.5209980632688 606.9080053874761 385.19741116969084Q601.9859782068293 391.8494578049216 599.549331087697 399.4030638742312L599.549331087697 399.4030638742312Q598.3066410569397 402.9118357257815 597.794945161922 406.3231416925665Q597.2588827957129 409.75881413054276 597.2588827957129 412.731523615884L597.2588827957129 412.731523615884Q597.2588827957129 423.96446683508316 603.6672647190304 431.0551099517577Q610.0756466423479 438.1701195396235 620.9430927936774 438.1701195396235L620.9430927936774 438.1701195396235Q632.3466013112156 438.1701195396235 641.6545933063005 433.6866888404204Q650.9382188301939 429.2276246124086 658.3943590147383 421.6740185430989Q665.8504991992826 414.14477894498066 671.5522534580518 404.93425283466115Q677.254007716821 395.72372672434165 681.3719413481543 385.9771382478131Q685.5142414506789 376.2305497712846 688.2189197529156 367.3855207288349Q690.9479645263436 358.51612521519394 692.3368533842489 351.8640785799632L692.3368533842489 351.8640785799632Q693.5795434150064 346.60092080263775 695.601960523886 339.7539423978765Q697.6000111615743 332.90696399311514 700.6701865316809 326.2305508866931Q703.7403619017873 319.5785042514624 708.0532273026512 314.3884458877109Q712.3417262323238 309.2227539951508 717.970381077519 306.93230570316655L717.970381077519 306.93230570316655Q707.9557614178859 307.1272374726971 697.6974770463396 310.5385434394821Q687.4391926747933 313.94984940626716 679.5444560088052 320.1876660312454Q671.6497193428171 326.42548265622366 668.4820780879453 335.53854288177786L668.4820780879453 335.53854288177786Q667.6048851250578 338.5112523671191 667.6048851250578 340.095072994555L667.6048851250578 340.095072994555Q667.6048851250578 343.77441014444446 669.7247681187027 345.52879607021964Q671.8202846411564 347.28318199599477 674.6224288281583 347.28318199599477L674.6224288281583 347.28318199599477Q678.8378283442569 347.28318199599477 682.0054695991287 344.8465348768626Q685.1487443828091 342.3855212865392 686.9031303085842 338.60871825188434Q688.6575162343594 334.83191521722955 688.6575162343594 331.32314336567924L688.6575162343594 331.32314336567924L688.6575162343594 330.2753851044524Q688.6575162343594 328.5209991786773 689.1935786005685 328.5209991786773L689.1935786005685 328.5209991786773Q689.534709197247 328.5209991786773 689.9002062651168 329.2276268432256Q690.2413368617953 329.93425450777397 690.4119021601346 330.61651570113094L690.4119021601346 330.61651570113094Q690.9479645263436 336.5863011430047 688.1458203393416 340.89916654386855Q685.3193096811483 345.18766547354113 681.201376049815 347.47811376552534Q677.0834424184818 349.74419558631826 673.0386082007224 349.74419558631826L673.0386082007224 349.74419558631826Q669.3592710508328 349.74419558631826 666.6545927485962 347.5512131790993Q663.9255479751682 345.35823077188036 663.9255479751682 340.8017006591033L663.9255479751682 340.8017006591033Q663.9255479751682 339.9245076962157 664.0230138599335 339.1447806180934Q664.0961132735074 338.3406870687798 664.2666785718467 337.46349410589227L664.2666785718467 337.46349410589227Q665.8504991992826 329.3981921415649 672.0883158242609 323.3553072861172Q678.3017659780478 317.28805595947813 686.8300308950103 313.1701223281449Q695.3339293407814 309.0521886968115 703.7403619017873 307.02977158793186Q712.1711609339845 305.0073544790522 718.1409463758582 305.0073544790522L718.1409463758582 305.0073544790522Q719.188704637085 305.0073544790522 720.2364628983119 305.10482036381745Q721.2842211595387 305.1779197773914 721.990848824087 305.372851546922L721.990848824087 305.372851546922Q722.5269111902961 305.372851546922 719.9684317152073 307.46836806937563Q717.43431871131 309.56388459182926 713.3894844935506 314.8270423691547Q709.3690167469825 320.09020014648013 705.3241825292232 329.49565802633015Q701.3037147826552 338.8767494349889 698.8427011923318 353.6184645057383L698.8427011923318 353.6184645057383Q696.0405570053298 370.28513080060213 689.9733056786907 385.8065729494739Q683.930420823243 401.3280150983456 674.2812982314798 413.6087165787716Q664.6321756397165 425.8894180591975 651.3037158980637 433.07752706063735Q637.9508896852196 440.26563606207714 620.6019621969988 440.26563606207714ZM724.9879247806196 407.12723524188004L724.9879247806196 407.12723524188004Q716.8982563451009 407.12723524188004 713.2189191952114 401.05998391524105Q709.5395820453218 395.01709905979334 709.5395820453218 386.7568653259354L709.5395820453218 386.7568653259354Q709.5395820453218 379.0570604294778 712.3417262323238 371.1623237634897Q715.1438704193257 363.2675870975016 720.2364628983119 358.0044293201762Q725.3290553772981 352.74127154285077 731.8105367141895 352.74127154285077L731.8105367141895 352.74127154285077Q733.053226744947 352.74127154285077 733.3943573416254 353.0824021395293L733.3943573416254 353.0824021395293Q735.3193085657399 350.9868856170756 737.7072227424893 349.6710961727443Q740.0707704480475 348.3553067284129 742.8729146350495 348.3553067284129L742.8729146350495 348.3553067284129Q749.0132653752624 348.3553067284129 751.4742789655859 352.64380565808545Q753.9352925559094 356.93230458775804 753.9352925559094 363.2675870975016L753.9352925559094 363.2675870975016Q753.9352925559094 369.4079378377146 751.9859748606036 376.42548154081516Q750.0610236364893 383.4430252439157 747.0883141511481 389.3884442145981Q744.0912381946155 395.35822965647185 740.7773981125958 398.6964362096829L740.7773981125958 398.6964362096829Q741.6545910754834 398.8670015080221 742.531784038371 398.9644673927874Q743.4089770012586 399.0375668063614 744.2861699641461 399.0375668063614L744.2861699641461 399.0375668063614Q750.5970860026983 399.0375668063614 755.8602437800238 395.6262608395764Q761.1234015573492 392.2149548727914 765.509366371787 387.2929276921445Q769.8953311862249 382.37090051149755 773.5746683361144 377.6438051003812L773.5746683361144 377.6438051003812Q774.1107307023235 377.1077427341721 774.451861299002 377.1077427341721L774.451861299002 377.1077427341721Q775.1584889635503 377.1077427341721 775.3290542618895 377.8143703987204Q775.4996195602288 378.5209980632688 774.987923665211 379.3981910261563L774.987923665211 379.3981910261563Q773.4041030377751 381.32314225027073 770.4070270812426 385.00247940016027Q767.4343175959015 388.7061830212411 763.2189180798028 392.5560854694699Q759.0035185637042 396.40598791769867 754.1058578542486 399.0375668063614Q749.1838306736017 401.6691456950241 743.9206728962763 401.6691456950241L743.9206728962763 401.6691456950241Q742.531784038371 401.6691456950241 741.2890940076136 401.4254809831109Q740.0707704480475 401.15744980000636 738.6575151189509 400.7919527321365L738.6575151189509 400.7919527321365Q735.855370931949 403.6184633903298 732.444064965164 405.3728493161049Q729.0083925271877 407.12723524188004 724.9879247806196 407.12723524188004ZM737.7803221560633 397.64867794845605L737.7803221560633 397.64867794845605Q741.6545910754834 393.43327843235744 744.0912381946155 387.634058288823Q746.552251784939 381.8592046164798 747.8680412292704 375.71885387626685Q749.1838306736017 369.5785031360538 749.1838306736017 364.3153453587284L749.1838306736017 364.3153453587284Q749.1838306736017 358.1749946185154 747.5269106325918 354.3007256990953Q745.8456241203907 350.45082325086656 742.531784038371 351.3280162137541L742.531784038371 351.3280162137541Q738.1458192239331 352.3757744749809 734.9781779690613 356.4206086927403Q731.8105367141895 360.4410764393083 730.1536166731797 366.0697312845035Q728.4966966321699 371.67401965850746 728.4966966321699 377.4732398020419L728.4966966321699 377.4732398020419Q728.4966966321699 383.95472113893345 730.6896790393888 389.5833759841287Q732.8826614466077 395.18766435813257 737.7803221560633 397.64867794845605ZM725.8651177435072 404.13015928534753L725.8651177435072 404.13015928534753Q728.8378272288484 404.13015928534753 731.2988408191718 402.7412704274422Q733.7598544094953 401.3280150983456 735.855370931949 399.57362917257046L735.855370931949 399.57362917257046Q730.7627784529627 396.60091968722924 728.3992307474045 390.0950718791464Q726.0356830418464 383.61359054225494 726.0356830418464 376.42548154081516L726.0356830418464 376.42548154081516Q726.0356830418464 370.96739199395915 727.3514724861777 365.7042342166337Q728.6672619305091 360.4410764393083 730.933343751302 356.4206086927403L730.933343751302 356.4206086927403L730.4216478562843 356.4206086927403Q727.6195036692823 356.4206086927403 724.8904588958543 359.3933181780815Q722.1614141224263 362.39039413461404 720.0658975999727 367.21495543049565Q717.970381077519 372.0395167263773 716.6545916331877 377.54633921561594Q715.3388021888563 383.07752817604586 715.3388021888563 388.3406859533713L715.3388021888563 388.3406859533713Q715.3388021888563 394.8465337614541 717.7754493079884 399.47616328780515Q720.2364628983119 404.13015928534753 725.8651177435072 404.13015928534753ZM782.8826603311992 405.71397991278343L782.8826603311992 405.71397991278343Q776.3768125231163 405.71397991278343 773.9157989327929 401.4985803966848Q771.4791518136608 397.2831808805862 771.4791518136608 391.8494578049216L771.4791518136608 391.8494578049216Q771.4791518136608 387.12236239380525 772.5269100748876 382.37090051149755Q773.5746683361144 377.6438051003812 774.7929918956804 374.4761638455094L774.7929918956804 374.4761638455094Q776.2062472247771 370.79682669561987 778.6672608151006 364.3153453587284Q781.128274405424 357.8094975506456 784.6370462569744 350.10969265418805Q788.1458181085246 342.3855212865392 792.263751739858 334.563884034125Q796.3816853711912 326.7666132529022 800.8651160703944 320.35823132958467Q805.3241802984062 313.94984940626716 809.8807104111833 310.4410775547168L809.8807104111833 310.4410775547168Q815.1438681885087 306.4206098081488 819.188702406268 306.4206098081488L819.188702406268 306.4206098081488Q824.2812948852542 306.4206098081488 824.2812948852542 312.5609605483618L824.2812948852542 312.5609605483618Q824.2812948852542 315.70423533204223 822.6974742578183 319.91963484814084L822.6974742578183 319.91963484814084Q819.3592677046073 328.3504338803381 809.2715486314003 341.5083283236516Q799.1838295581932 354.6662227669651 782.1760326666508 370.96739199395915L782.1760326666508 370.96739199395915Q780.5922120392149 374.3055985471702 779.1789567101183 380.3728498738092Q777.790067852213 386.4157347292569 777.790067852213 392.0200231032608L777.790067852213 392.0200231032608Q777.790067852213 396.60091968722924 779.2764225948836 399.9147597692489Q780.7627773375542 403.25296632246 784.6370462569744 403.25296632246L784.6370462569744 403.25296632246Q789.1935763697514 403.25296632246 792.7754476348756 400.10969153877954Q796.3816853711912 396.94205028390775 799.2812954429585 392.28805428636537Q802.1809055147257 387.634058288823 804.2764220371794 383.2480934743851L804.2764220371794 383.2480934743851Q803.9352914405008 381.68863931814053 803.6672602573963 378.08240158182497Q803.3992290742917 374.4761638455094 803.3992290742917 371.8445849568467L803.3992290742917 371.8445849568467Q803.3992290742917 367.2880548440696 805.1536150000669 364.92450713851144Q806.9080009258421 362.56095943295327 808.8329521499564 362.56095943295327L808.8329521499564 362.56095943295327Q810.246207479053 362.56095943295327 811.2939657402799 363.77928299251937Q812.3417240015067 365.0219730232767 812.3417240015067 367.8241172102787L812.3417240015067 367.8241172102787Q812.3417240015067 371.67401965850746 810.9528351436014 374.9147603269532Q809.5395798145048 378.1798674665903 806.7374356275028 384.49078350514253L806.7374356275028 384.49078350514253Q806.5668703291635 388.170120655032 808.3943556685126 390.53366836059024Q810.246207479053 392.8972160661484 813.3894822627335 392.8972160661484L813.3894822627335 392.8972160661484Q817.9703788467019 392.8972160661484 822.2588777763746 389.3884442145981Q826.5473767060471 385.8796723630478 830.0561485575973 381.25004283669676Q833.5649204091476 376.5960468391544 835.5142381044534 373.4284055842826L835.5142381044534 373.4284055842826Q836.3914310673409 372.0395167263773 837.2686240302285 372.0395167263773L837.2686240302285 372.0395167263773Q837.7803199252462 372.0395167263773 838.0483511083507 372.6486785061603Q838.3163822914553 373.25784028594336 837.7803199252462 374.13503324883095L837.7803199252462 374.13503324883095Q835.3193063349228 377.9849356970597 831.4694038866941 383.0044287624719Q827.6195014384652 387.9995553566928 822.9655054409228 391.6788925065823Q818.3115094433805 395.35822965647185 812.8777863677158 395.35822965647185L812.8777863677158 395.35822965647185Q809.710145112844 395.35822965647185 807.4440632920512 393.3358125475922Q805.1536150000669 391.3377619099038 804.8124844033885 387.4634929904837L804.8124844033885 387.4634929904837Q802.6926014097435 391.6788925065823 799.6224260396369 395.89429202268093Q796.5522506695305 400.10969153877954 792.3368511534319 402.9118357257815Q788.1458181085246 405.71397991278343 782.8826603311992 405.71397991278343ZM784.1009838907653 366.41086188118203L784.1009838907653 366.41086188118203Q792.5317829229625 358.1749946185154 799.7929913379762 349.4761644032137Q807.0785662241813 340.8017006591033 812.512289299846 332.90696399311514Q817.9703788467019 325.01222732712705 820.4070259658341 319.21300718359254L820.4070259658341 319.21300718359254Q821.99084659327 315.1925394370245 821.99084659327 312.39039525002255L821.99084659327 312.39039525002255Q821.99084659327 309.0521886968115 820.0658953691556 309.0521886968115L820.0658953691556 309.0521886968115Q817.7754470771714 309.0521886968115 814.632172293491 312.90209114504034L814.632172293491 312.90209114504034Q808.8329521499564 319.7490695498016 803.1311978911872 329.0570615448864Q797.429443632418 338.3406870687798 792.5317829229625 348.0872755453084Q787.6097557423155 357.8094975506456 784.1009838907653 366.41086188118203ZM865.8504947376484 430.2753828736354L865.8504947376484 430.2753828736354Q858.4918204378694 427.8143692833119 855.056147999893 422.819242689091Q851.6448420331081 417.82411609487013 851.1087796668991 410.2705100255605L851.1087796668991 410.2705100255605Q841.8251541430056 407.63893113689784 836.1233998842364 402.3757733595724Q830.4216456254671 397.112615582247 827.8631661503784 390.19253776391173Q825.329053146481 383.2480934743851 825.329053146481 375.71885387626685L825.329053146481 375.71885387626685Q825.329053146481 367.2880548440696 828.5697938149267 360.0024799578645Q831.8105344833725 352.74127154285077 837.3417234438025 347.11261669765554Q842.8729124042324 341.5083283236516 849.7929902225676 338.3406870687798Q856.7374345120943 335.19741228509935 864.0961088118734 335.19741228509935L864.0961088118734 335.19741228509935Q869.3592665891988 335.19741228509935 874.5493249529502 336.9517982108745Q879.7150168455103 338.70618413664965 884.4421122566266 342.5560865848784L884.4421122566266 342.5560865848784Q890.5824629968397 336.07460524798694 896.6497143234787 330.37285098921774Q902.6925991789265 324.67109673044854 907.7851916579125 318.871876586914L907.7851916579125 318.871876586914Q907.0785639933642 316.2402976982513 906.298836915242 313.43815351124937Q905.4947433659283 310.6360093242474 904.9830474709106 307.29780277103634L904.9830474709106 307.29780277103634Q904.8124821725713 306.7617404048273 904.8124821725713 306.15257862504427Q904.8124821725713 305.5434168452613 904.8124821725713 304.8367891807129L904.8124821725713 304.8367891807129Q904.8124821725713 301.4985826275019 906.1282716169028 298.16037607429087Q907.4440610612342 294.84653599227113 909.8807081803662 292.556087700287Q912.3417217706897 290.2656394083027 915.8504936222399 290.2656394083027L915.8504936222399 290.2656394083027Q916.386555988449 290.2656394083027 916.995717768232 290.36310529306803Q917.6048795480151 290.46057117783334 918.3115072125634 290.63113647617257L918.3115072125634 290.63113647617257Q922.3563414303227 291.50832943906016 922.3563414303227 296.77148721638554L922.3563414303227 296.77148721638554Q922.3563414303227 300.45082436627507 920.0658931383385 305.0073544790522L920.0658931383385 305.0073544790522Q918.6526378092419 308.0044304355847 916.7276865851275 310.80657462258665Q914.8027353610131 313.6087188095886 912.5122870690288 316.4108629965906L912.5122870690288 316.4108629965906Q917.2637489513365 328.5209991786773 920.0658931383385 339.04731473332816Q922.8680373253405 349.573630287979 922.8680373253405 359.92938054429055L922.8680373253405 359.92938054429055Q922.8680373253405 371.8445849568467 918.2140413277981 381.49370754860996Q913.584411801447 391.14283014037323 905.4947433659283 397.98980854513457Q897.429441401601 404.8367869498959 887.26862291482 408.5161240997854Q877.0834379568475 412.19546124967496 866.0210600359877 412.19546124967496L866.0210600359877 412.19546124967496Q863.0483505506465 412.19546124967496 859.8807092957747 411.9517965377617Q856.7374345120943 411.68376535465717 853.7403585555618 410.97713769010886L853.7403585555618 410.97713769010886Q854.6175515184493 419.04243965443624 858.5649198514434 422.91670857385634Q862.5122881844375 426.7666110220851 866.3865571038575 427.8143692833119L866.3865571038575 427.8143692833119Q868.1409430296327 428.350431649521 868.1409430296327 429.3981899107478L868.1409430296327 429.3981899107478Q868.1409430296327 430.8114452398445 865.8504947376484 430.2753828736354ZM911.8300258756719 314.1447811757977L911.8300258756719 314.1447811757977Q913.7549770997864 311.68376758547424 915.4118971407961 309.1252881103855Q917.0931836529974 306.5911751064881 918.3115072125634 303.7890309194861L918.3115072125634 303.7890309194861Q920.6019555045475 299.40306610504825 920.6019555045475 296.6009219180463L920.6019555045475 296.6009219180463Q920.6019555045475 294.3104736260621 919.188700175451 293.774411259853L919.188700175451 293.774411259853Q918.6526378092419 293.4332806631745 917.2637489513365 293.4332806631745L917.2637489513365 293.4332806631745Q915.5093630255615 293.4332806631745 913.584411801447 295.0171012906104Q911.6350941061414 296.6009219180463 910.246205248236 300.98688673248415L910.246205248236 300.98688673248415Q909.710142882027 302.7412726582593 909.710142882027 304.49565858403446L909.710142882027 304.49565858403446Q909.710142882027 306.7617404048273 910.31930466181 309.1252881103855Q910.9528329127843 311.51320228713496 911.8300258756719 314.1447811757977ZM864.9733017747609 409.39331706267296L864.9733017747609 409.39331706267296Q875.1584867327333 409.39331706267296 884.7101434397312 404.6662216515566Q894.2861666179206 399.9147597692489 901.3768097345951 392.28805428636537Q908.4918193224609 384.66134880348176 911.464528807802 375.54828857792756L911.464528807802 375.54828857792756Q913.0483494352379 370.62626139728064 913.7549770997864 365.5336689182945Q914.4616047643347 360.4410764393083 914.4616047643347 355.00735336364363L914.4616047643347 355.00735336364363Q914.4616047643347 346.77148610097703 912.8777841368988 338.0726558856753Q911.2939635094629 329.3981921415649 908.4918193224609 321.16232487889823L908.4918193224609 321.16232487889823Q903.5697921418139 326.5960479545629 897.7949384694707 332.12723691499286Q891.9957183259363 337.6340594042315 886.0259328840625 343.9693419139751L886.0259328840625 343.9693419139751Q889.1935741389343 346.94205139931626 890.7773947663702 351.3280162137541Q892.3368489226148 355.71398102819194 892.3368489226148 360.27051114096906L892.3368489226148 360.27051114096906Q892.3368489226148 367.6535519119394 888.8280770710645 373.25784028594336L888.8280770710645 373.25784028594336Q885.5142369890448 378.691563361608 879.3738862488319 381.9323040300538Q873.2335355086188 385.19741116969084 866.7276877005361 385.19741116969084L866.7276877005361 385.19741116969084Q864.8027364764216 385.19741116969084 862.9508846658812 384.831914101821Q861.1233993265321 384.49078350514253 859.369013400757 383.95472113893345L859.369013400757 383.95472113893345Q857.0785651087728 389.3884442145981 855.3241791829976 395.6262608395764Q853.5697932572225 401.86407746455467 853.5697932572225 407.63893113689784L853.5697932572225 407.63893113689784Q858.8329510345479 409.39331706267296 864.9733017747609 409.39331706267296ZM851.1087796668991 406.93230347234953L851.1087796668991 406.93230347234953Q851.3037114364297 400.6213874337973 853.1311967757788 394.7490678766888Q854.9830485863192 388.8767483195804 857.249130407112 383.07752817604586L857.249130407112 383.07752817604586Q853.7403585555618 381.15257695193145 851.9859726297866 378.1798674665903Q850.2315867040115 375.18279151005777 850.2315867040115 372.21008202471654L850.2315867040115 372.21008202471654Q850.2315867040115 366.9469242473911 854.4469862201101 364.3153453587284L854.4469862201101 364.3153453587284Q855.3241791829976 363.77928299251937 855.6896762508675 363.77928299251937L855.6896762508675 363.77928299251937Q856.2013721458852 363.77928299251937 856.2013721458852 364.3153453587284L856.2013721458852 364.3153453587284Q856.2013721458852 364.8270412537462 855.3241791829976 365.7042342166337L855.3241791829976 365.7042342166337Q852.3514696976564 368.33581310529644 852.3514696976564 372.0395167263773L852.3514696976564 372.0395167263773Q852.3514696976564 377.6438051003812 857.9557580716603 380.811446355253L857.9557580716603 380.811446355253Q862.707219953968 369.74906843439305 869.0912354060943 360.8796729207521Q875.4996173294118 352.0346438783024 882.346595734173 344.8465348768626L882.346595734173 344.8465348768626Q877.9606309197352 341.33776302531237 873.477200220532 339.7539423978765Q869.0181359925202 338.1701217704406 864.461605879743 338.1701217704406L864.461605879743 338.1701217704406Q855.6896762508675 338.1701217704406 847.8680389984534 343.433279547766Q840.0707682172305 348.69643732509144 835.3193063349228 357.29780165562784Q830.5922109238064 365.8991659861643 830.5922109238064 376.0599844729453L830.5922109238064 376.0599844729453Q830.5922109238064 382.37090051149755 832.3465968495816 388.43815183813655Q834.1009827753567 394.48103669358426 838.5844134745598 399.3055979894659Q843.0434777025716 404.13015928534753 851.1087796668991 406.93230347234953ZM865.6799294393093 382.90696287770663L865.6799294393093 382.90696287770663Q871.1136525149739 382.90696287770663 876.9859720720824 379.8367875076001Q882.8826581003821 376.76661213749367 886.0259328840625 371.50345436016823L886.0259328840625 371.50345436016823Q889.0230088405951 366.5814271795213 889.0230088405951 360.4410764393083L889.0230088405951 360.4410764393083Q889.0230088405951 356.59117399107953 887.7072193962638 352.81437095642474Q886.3914299519324 349.0375679217699 883.7598510632697 346.23542373476795L883.7598510632697 346.23542373476795Q877.254003255187 353.42353273620773 871.0405531013998 362.1223629515095Q864.8027364764216 370.79682669561987 860.0756410653053 381.8592046164798L860.0756410653053 381.8592046164798Q862.5122881844375 382.90696287770663 865.6799294393093 382.90696287770663ZM944.0912337329814 406.2500422789925L944.0912337329814 406.2500422789925Q937.4391870977506 406.2500422789925 933.0532222833128 401.5960462814501Q928.6672574688749 396.94205028390775 928.6672574688749 388.8767483195804L928.6672574688749 388.8767483195804Q928.6672574688749 382.37090051149755 931.8105322525555 374.4761638455094L931.8105322525555 374.4761638455094Q933.7598499478611 369.74906843439305 937.2686217994114 364.92450713851144Q940.7773936509616 360.09994584262984 945.8456196587565 357.0297704725233Q950.9382121377428 353.9595951024168 957.6146252441648 354.6662227669651L957.6146252441648 354.6662227669651Q963.3894789165079 355.3728504315135 965.5093619101528 357.73639813707166Q967.6048784326065 360.09994584262984 967.6048784326065 362.56095943295327L967.6048784326065 362.56095943295327Q967.6048784326065 364.6564759554069 966.5571201713798 366.14283069807755Q965.5093619101528 367.6535519119394 964.6321689472654 367.6535519119394L964.6321689472654 367.6535519119394Q963.2189136181687 367.6535519119394 963.2189136181687 364.8270412537462L963.2189136181687 364.8270412537462Q963.2189136181687 363.2675870975016 963.2189136181687 361.3182694021959Q963.2189136181687 359.3933181780815 962.1711553569419 358.0775287337501Q961.1233970957151 356.76173928941876 957.7851905425041 356.76173928941876L957.7851905425041 356.76173928941876Q953.9352880942752 356.76173928941876 950.1584850596205 359.8319146595253Q946.3816820249656 362.9020900296318 943.4820719531983 367.3855207288349Q940.5824618814311 371.8445849568467 938.828075955656 376.0599844729453L938.828075955656 376.0599844729453Q937.0736900298809 380.811446355253 936.1964970669933 384.75881468824707Q935.3193041041058 388.7061830212411 935.3193041041058 391.8494578049216L935.3193041041058 391.8494578049216Q935.3193041041058 397.64867794845605 937.7803176944292 400.71885331856254Q940.2413312847526 403.789028688669 944.6272960991905 403.789028688669L944.6272960991905 403.789028688669Q948.1360679507408 403.789028688669 952.5220327651787 401.76661157978936Q956.9079975796164 399.7441944709097 962.0005900586026 395.35822965647185L962.0005900586026 395.35822965647185Q967.9703755004764 390.4605689470162 972.4294397284882 385.0999452849255Q976.9128704276914 379.73932162283484 981.2988352421291 372.7217779197343L981.2988352421291 372.7217779197343Q981.6399658388077 372.38064732305577 982.1760282050167 372.38064732305577L982.1760282050167 372.38064732305577Q982.6877241000345 372.38064732305577 983.3212523510088 372.8192438044996Q983.9304141307919 373.25784028594336 983.7598488324527 373.59897088262187L983.7598488324527 373.59897088262187Q979.0083869501449 380.6165145857224 973.9157944711587 386.7568653259354Q968.8475684633639 392.8972160661484 962.8777830214902 397.98980854513457L962.8777830214902 397.98980854513457Q957.9557558408433 402.3757733595724 953.1311945449617 404.3007245836868Q948.30663324908 406.2500422789925 944.0912337329814 406.2500422789925ZM993.2140396546854 407.12723524188004L993.2140396546854 407.12723524188004Q985.1487376903578 407.12723524188004 981.4694005404684 401.05998391524105Q977.7900633905788 395.01709905979334 977.7900633905788 386.7568653259354L977.7900633905788 386.7568653259354Q977.7900633905788 379.0570604294778 980.5922075775809 371.1623237634897Q983.3943517645828 363.2675870975016 988.4869442435689 358.0044293201762Q993.5795367225552 352.74127154285077 1000.0610180594466 352.74127154285077L1000.0610180594466 352.74127154285077Q1001.303708090204 352.74127154285077 1001.6448386868825 353.0824021395293L1001.6448386868825 353.0824021395293Q1003.5697899109969 350.9868856170756 1005.933337616555 349.6710961727443Q1008.3212517933046 348.3553067284129 1011.1233959803064 348.3553067284129L1011.1233959803064 348.3553067284129Q1017.2637467205195 348.3553067284129 1019.724760310843 352.64380565808545Q1022.161407429975 356.93230458775804 1022.161407429975 363.2675870975016L1022.161407429975 363.2675870975016Q1022.161407429975 369.4079378377146 1020.2364562058608 376.42548154081516Q1018.3115049817463 383.4430252439157 1015.338795496405 389.3884442145981Q1012.3417195398725 395.35822965647185 1009.0035129866615 398.6964362096829L1009.0035129866615 398.6964362096829Q1009.8807059495491 398.8670015080221 1010.7578989124368 398.9644673927874Q1011.6350918753242 399.0375668063614 1012.5122848382118 399.0375668063614L1012.5122848382118 399.0375668063614Q1018.8475673479554 399.0375668063614 1024.1107251252809 395.6262608395764Q1029.3738829026063 392.2149548727914 1033.759847717044 387.2929276921445Q1038.1458125314819 382.37090051149755 1041.8251496813714 377.6438051003812L1041.8251496813714 377.6438051003812Q1042.3368455763891 377.1077427341721 1042.702342644259 377.1077427341721L1042.702342644259 377.1077427341721Q1043.4089703088073 377.1077427341721 1043.5795356071467 377.8143703987204Q1043.7501009054859 378.5209980632688 1043.2140385392768 379.3981910261563L1043.2140385392768 379.3981910261563Q1041.6545843830322 381.32314225027073 1038.6575084264996 385.00247940016027Q1035.6847989411585 388.7061830212411 1031.46939942506 392.5560854694699Q1027.2539999089613 396.40598791769867 1022.3563391995057 399.0375668063614Q1017.4343120188587 401.6691456950241 1012.1711542415333 401.6691456950241L1012.1711542415333 401.6691456950241Q1010.7578989124368 401.6691456950241 1009.5395753528705 401.4254809831109Q1008.3212517933046 401.15744980000636 1006.9079964642079 400.7919527321365L1006.9079964642079 400.7919527321365Q1004.1058522772059 403.6184633903298 1000.6701798392296 405.3728493161049Q997.2588738724446 407.12723524188004 993.2140396546854 407.12723524188004ZM1006.0308035013203 397.64867794845605L1006.0308035013203 397.64867794845605Q1009.8807059495491 393.43327843235744 1012.3417195398725 387.634058288823Q1014.8027331301961 381.8592046164798 1016.1185225745273 375.71885387626685Q1017.4343120188587 369.5785031360538 1017.4343120188587 364.3153453587284L1017.4343120188587 364.3153453587284Q1017.4343120188587 358.1749946185154 1015.7773919778489 354.3007256990953Q1014.0961054656477 350.45082325086656 1010.7578989124368 351.3280162137541L1010.7578989124368 351.3280162137541Q1006.3719340979989 352.3757744749809 1003.2286593143184 356.4206086927403Q1000.0610180594466 360.4410764393083 998.4040980184368 366.0697312845035Q996.7228115062355 371.67401965850746 996.7228115062355 377.4732398020419L996.7228115062355 377.4732398020419Q996.7228115062355 383.95472113893345 998.9157939134545 389.5833759841287Q1001.1087763206735 395.18766435813257 1006.0308035013203 397.64867794845605ZM994.0912326175728 404.13015928534753L994.0912326175728 404.13015928534753Q997.0883085741054 404.13015928534753 999.5493221644289 402.7412704274422Q1001.985969283561 401.3280150983456 1004.1058522772059 399.57362917257046L1004.1058522772059 399.57362917257046Q999.0132597982198 396.60091968722924 996.6497120926616 390.0950718791464Q994.2861643871034 383.61359054225494 994.2861643871034 376.42548154081516L994.2861643871034 376.42548154081516Q994.2861643871034 370.96739199395915 995.6019538314348 365.7042342166337Q996.9177432757663 360.4410764393083 999.1838250965591 356.4206086927403L999.1838250965591 356.4206086927403L998.6721292015413 356.4206086927403Q995.8456185433481 356.4206086927403 993.1409402411114 359.3933181780815Q990.4118954676833 362.39039413461404 988.3163789452296 367.21495543049565Q986.1964959515848 372.0395167263773 984.8807065072534 377.54633921561594Q983.5649170629221 383.07752817604586 983.5649170629221 388.3406859533713L983.5649170629221 388.3406859533713Q983.5649170629221 394.8465337614541 986.0259306532455 399.47616328780515Q988.4869442435689 404.13015928534753 994.0912326175728 404.13015928534753ZM1050.9382099069257 405.8845452111227L1050.9382099069257 405.8845452111227Q1047.6000033537146 405.8845452111227 1045.1633562345826 403.179866908886Q1042.702342644259 400.450822135458 1042.702342644259 395.18766435813257L1042.702342644259 395.18766435813257Q1042.702342644259 392.72665076780913 1043.4089703088073 389.5833759841287Q1044.0912315021644 386.4157347292569 1045.8456174279395 382.73639757936735L1045.8456174279395 382.73639757936735Q1049.8904516456987 373.96446795049167 1051.8154028698132 370.0170996174976Q1053.7403540939276 366.0697312845035 1054.2764164601367 365.0219730232767Q1054.8124788263458 363.9498482908586 1054.4469817584759 364.14478006038917L1054.4469817584759 364.14478006038917Q1054.1058511617975 364.3153453587284 1051.9128687545785 367.3855207288349Q1049.7198863473595 370.4556960989414 1046.9908415739314 374.4030644319355Q1044.286163271695 378.3504327649295 1041.8251496813714 381.15257695193145L1041.8251496813714 381.15257695193145Q1041.2890873151623 381.8592046164798 1040.582459650614 381.8592046164798L1040.582459650614 381.8592046164798Q1039.900198457257 381.8592046164798 1039.900198457257 381.15257695193145L1039.900198457257 381.15257695193145Q1039.900198457257 380.44594928738314 1040.582459650614 379.5687563244956L1040.582459650614 379.5687563244956Q1045.504486831261 372.21008202471654 1048.842693384472 367.21495543049565Q1052.180899937683 362.1954623650835 1055.4947400197027 356.76173928941876L1055.4947400197027 356.76173928941876Q1057.2491259454778 353.7890298040776 1059.7101395358013 353.8621292176515Q1062.1711531261249 353.9595951024168 1064.9732973131267 353.9595951024168L1064.9732973131267 353.9595951024168Q1064.2666696485785 355.17791866198286 1062.1711531261249 360.0024799578645Q1060.0756366036712 364.8270412537462 1057.6146230133477 370.72372728204596Q1055.1536094230241 376.5960468391544 1053.0580929005705 380.9820116535922L1053.0580929005705 380.9820116535922Q1050.7676446085866 386.24516943091766 1049.3543892794896 390.6311342453555Q1047.9655004215845 395.01709905979334 1047.9655004215845 398.1603738434738L1047.9655004215845 398.1603738434738Q1047.9655004215845 403.0824010241207 1051.644837571474 403.789028688669L1051.644837571474 403.789028688669Q1053.9352858634581 404.3007245836868 1057.0054612335648 401.6691456950241Q1060.0756366036712 399.0375668063614 1063.316377272117 394.57850257834957Q1066.5571179405626 390.0950718791464 1069.6272933106693 384.66134880348176Q1072.6974686807757 379.2276257278171 1074.9879169727599 374.13503324883095L1074.9879169727599 374.13503324883095Q1077.0834334952135 369.4079378377146 1079.0083847193278 364.58337654183293Q1080.9333359434422 359.7588152459513 1082.346591272539 356.4206086927403L1082.346591272539 356.4206086927403Q1083.2237842354266 354.4956574686259 1086.7325560869767 354.22762628552135Q1090.241327938527 353.9595951024168 1092.5317762305112 353.9595951024168L1092.5317762305112 353.9595951024168Q1090.9479556030753 355.5434157298527 1088.3163767144126 360.4410764393083Q1085.68479782575 365.3631036199552 1083.0532189370872 371.8445849568467Q1080.4216400484245 378.3504327649295 1078.6672541226494 384.75881468824707Q1076.9128681968741 391.14283014037323 1076.9128681968741 395.89429202268093L1076.9128681968741 395.89429202268093Q1076.9128681968741 402.9118357257815 1081.6399636079905 402.9118357257815L1081.6399636079905 402.9118357257815Q1082.5171565708781 402.9118357257815 1083.4918154185311 402.7412704274422Q1084.4421077949926 402.54633865791163 1085.68479782575 402.0346427628939L1085.68479782575 402.0346427628939Q1090.7773903047362 399.9147597692489 1096.0405480820616 395.18766435813257Q1101.303705859387 390.4605689470162 1105.933335385738 384.66134880348176Q1110.5873313832803 378.8621286599473 1113.7549726381521 373.96446795049167L1113.7549726381521 373.96446795049167Q1114.802730899379 372.21008202471654 1115.6799238622666 372.21008202471654L1115.6799238622666 372.21008202471654Q1116.2159862284757 372.21008202471654 1116.2159862284757 373.08727498760413L1116.2159862284757 373.08727498760413Q1116.2159862284757 374.3055985471702 1115.338793265588 375.71885387626685L1115.338793265588 375.71885387626685Q1112.1711520107165 380.6165145857224 1107.3465907148347 386.4157347292569Q1102.522029418953 392.2149548727914 1097.0883063432884 397.112615582247Q1091.6545832676238 402.0346427628939 1086.3914254902984 404.3007245836868L1086.3914254902984 404.3007245836868Q1082.6877218692175 405.8845452111227 1080.0561429805548 405.8845452111227L1080.0561429805548 405.8845452111227Q1075.3290475694384 405.8845452111227 1073.1360651622194 401.86407746455467Q1070.9430827550004 397.8192432467953 1070.9430827550004 392.5560854694699L1070.9430827550004 392.5560854694699Q1070.9430827550004 387.634058288823 1072.1614063145666 383.78415584059417L1072.1614063145666 383.78415584059417Q1067.7754415001286 392.5560854694699 1062.4391843092294 399.23249857589195Q1057.0785606471386 405.8845452111227 1050.9382099069257 405.8845452111227ZM1105.4947389042943 406.93230347234953L1105.4947389042943 406.93230347234953Q1105.4947389042943 406.93230347234953 1108.3212495624875 400.71885331856254Q1111.1233937494894 394.48103669358426 1115.6799238622666 382.73639757936735L1115.6799238622666 382.73639757936735Q1119.5298263104953 373.96446795049167 1121.4791440058011 370.0170996174976Q1123.4040952299156 366.0697312845035 1123.915791124933 365.0219730232767Q1124.4518534911422 363.9498482908586 1124.1107228944638 364.14478006038917L1124.1107228944638 364.14478006038917Q1123.745225826594 364.3153453587284 1121.552243419375 367.3855207288349Q1119.359261012156 370.4556960989414 1116.6545827099194 374.4030644319355Q1113.9255379364913 378.3504327649295 1111.464524346168 381.15257695193145L1111.464524346168 381.15257695193145Q1110.9528284511503 381.8592046164798 1110.246200786602 381.8592046164798L1110.246200786602 381.8592046164798Q1109.5395731220538 381.8592046164798 1109.5395731220538 381.15257695193145L1109.5395731220538 381.15257695193145Q1109.5395731220538 380.44594928738314 1110.246200786602 379.5687563244956L1110.246200786602 379.5687563244956Q1115.1438614960575 372.21008202471654 1118.4820680492685 367.21495543049565Q1121.8202746024795 362.1954623650835 1125.1584811556907 356.76173928941876L1125.1584811556907 356.76173928941876Q1126.9128670814657 353.7890298040776 1129.3738806717893 353.8621292176515Q1131.8105277909212 353.9595951024168 1134.6370384491147 353.9595951024168L1134.6370384491147 353.9595951024168Q1133.9304107845662 355.5434157298527 1132.3465901571303 359.22275287974225Q1130.7627695296947 362.9020900296318 1128.7403524208148 367.55608602717416Q1126.7423017831265 372.21008202471654 1124.9879158573513 376.76661213749367L1124.9879158573513 376.76661213749367Q1127.9606253426925 371.67401965850746 1132.9557519369134 365.26563773518996Q1137.9508785311343 358.88162228306373 1143.4089680779903 355.5434157298527L1143.4089680779903 355.5434157298527Q1147.9654981907674 352.74127154285077 1151.8154006389962 352.74127154285077L1151.8154006389962 352.74127154285077Q1154.6175448259983 352.74127154285077 1156.371930751773 354.22762628552135Q1158.1263166775484 355.71398102819194 1158.1263166775484 358.68669051353316L1158.1263166775484 358.68669051353316Q1158.1263166775484 361.51320117172645 1156.371930751773 365.192538321616L1156.371930751773 365.192538321616Q1154.2764142293197 369.5785031360538 1150.9382076761085 375.62138799150154Q1147.6000011228975 381.68863931814053 1144.7247575223216 387.56095887524896Q1141.8251474505546 393.43327843235744 1140.582457419797 397.64867794845605L1140.582457419797 397.64867794845605Q1140.4118921214576 398.35530561300436 1140.3387927078838 398.9644673927874Q1140.2413268231185 399.57362917257046 1140.2413268231185 400.28025683711877L1140.2413268231185 400.28025683711877Q1140.2413268231185 404.13015928534753 1144.456726339217 404.13015928534753L1144.456726339217 404.13015928534753Q1146.040546966653 404.13015928534753 1148.6721258553157 403.25296632246L1148.6721258553157 403.25296632246Q1153.7403518631106 401.15744980000636 1159.2715408235404 395.9673914362549Q1164.8027297839703 390.8016995436948 1169.7978563781912 384.75881468824707Q1174.7929829724121 378.691563361608 1177.7900589289447 373.96446795049167L1177.7900589289447 373.96446795049167Q1178.3017548239627 373.25784028594336 1178.8378171901718 373.25784028594336L1178.8378171901718 373.25784028594336Q1179.3738795563809 373.25784028594336 1179.6175442682938 373.96446795049167Q1179.8855754513984 374.67109561504 1179.3738795563809 375.54828857792756L1179.3738795563809 375.54828857792756Q1176.3768035998482 380.44594928738314 1171.284211120862 386.4157347292569Q1166.2159851130673 392.3855201711306 1160.5142308542977 397.47811265011677Q1154.8124765955286 402.54633865791163 1149.5493188182033 404.8367869498959L1149.5493188182033 404.8367869498959Q1147.7949328924283 405.54341461444415 1146.2111122649922 405.8845452111227Q1144.6272916375565 406.2500422789925 1143.2140363084595 406.2500422789925L1143.2140363084595 406.2500422789925Q1139.5346991585702 406.2500422789925 1137.171151453012 404.05705987177356Q1134.8076037474539 401.86407746455467 1134.8076037474539 397.8192432467953L1134.8076037474539 397.8192432467953Q1134.8076037474539 392.8972160661484 1137.9508785311343 386.7568653259354Q1141.1185197860061 380.6165145857224 1145.0658881190002 374.4030644319355Q1149.0132564519943 368.16524780695715 1151.3037047439784 363.072655327971L1151.3037047439784 363.072655327971Q1151.9859659373355 361.68376647006573 1151.9859659373355 360.27051114096906L1151.9859659373355 360.27051114096906Q1151.9859659373355 356.250043394401 1148.1360634891066 356.250043394401L1148.1360634891066 356.250043394401Q1146.3816775633316 356.250043394401 1143.920663973008 357.63893225230635L1143.920663973008 357.63893225230635Q1139.9001962264401 360.09994584262984 1135.7578961239153 365.26563773518996Q1131.639962492582 370.4556960989414 1127.9606253426925 376.42548154081516L1127.9606253426925 376.42548154081516Q1122.8680328637065 384.49078350514253 1118.6526333476077 392.5560854694699Q1114.4616003027004 400.6213874337973 1112.5122826073948 405.3728493161049L1112.5122826073948 405.3728493161049Q1110.246200786602 405.3728493161049 1107.8826530810438 406.1525763942272Q1105.4947389042943 406.93230347234953 1105.4947389042943 406.93230347234953ZM1181.6399613771737 406.591172875671L1181.6399613771737 406.591172875671Q1176.9128659660573 406.591172875671 1174.01325589429 403.4235316207992Q1171.1136458225228 400.28025683711877 1171.1136458225228 395.18766435813257L1171.1136458225228 395.18766435813257Q1171.1136458225228 391.8494578049216 1172.3563358532801 388.3406859533713L1172.3563358532801 388.3406859533713Q1175.8651077048303 378.1798674665903 1180.689669000712 367.3855207288349Q1185.5142302965937 356.59117399107953 1191.1185186705975 346.23542373476795L1191.1185186705975 346.23542373476795L1183.9304096691578 346.23542373476795Q1181.6399613771737 346.23542373476795 1181.6399613771737 345.18766547354113L1181.6399613771737 345.18766547354113Q1181.6399613771737 343.77441014444446 1183.9304096691578 343.77441014444446L1183.9304096691578 343.77441014444446L1192.3368422301637 343.77441014444446Q1194.0912281559388 340.631135360764 1196.381676447923 336.1477046615609Q1198.672124739907 331.6886404335491 1201.0356724454653 327.20520973434594Q1203.3992201510234 322.7217790351428 1205.251071961564 319.4079389531231Q1207.0785573009132 316.0697323999121 1207.6146196671223 315.1925394370245L1207.6146196671223 315.1925394370245Q1208.3212473316705 314.1447811757977 1209.6370367760017 313.7061846943539Q1210.9528262203332 313.26758821291014 1212.1711497798992 313.26758821291014L1212.1711497798992 313.26758821291014Q1213.584405108996 313.26758821291014 1214.364132187118 313.6087188095886Q1215.1438592652405 313.94984940626716 1214.6321633702228 314.8270423691547L1214.6321633702228 314.8270423691547Q1214.0961010040137 315.70423533204223 1212.2686156646646 319.13990777001857Q1210.4167638541242 322.55121373680356 1207.9557502638006 327.1077438495807Q1205.494736673477 331.6886404335491 1203.058089554345 336.24517054632616Q1200.5970759640215 340.8017006591033 1199.0132553365856 343.77441014444446L1199.0132553365856 343.77441014444446L1206.9079920025738 343.77441014444446Q1215.6799216314496 343.77441014444446 1222.8680306328895 343.53074543253126Q1230.0561396343292 343.2627142494267 1232.005457329635 342.3855212865392L1232.005457329635 342.3855212865392Q1233.0532155908616 341.8494589203301 1233.75984325541 341.8494589203301L1233.75984325541 341.8494589203301Q1234.6370362182977 341.8494589203301 1234.6370362182977 342.5560865848784L1234.6370362182977 342.5560865848784Q1234.6370362182977 343.433279547766 1232.6877185229919 344.65160310733205L1232.6877185229919 344.65160310733205Q1230.592202000538 345.89429313808944 1223.672124182203 346.0648584364287Q1216.7276798926762 346.23542373476795 1208.3212473316705 346.23542373476795L1208.3212473316705 346.23542373476795L1197.7949317770197 346.23542373476795Q1191.6545810368066 357.8094975506456 1186.293957374716 367.9946825086179Q1180.9333337126252 378.1798674665903 1176.9128659660573 390.6311342453555L1176.9128659660573 390.6311342453555Q1175.8651077048303 393.9693407985665 1175.8651077048303 396.60091968722924L1175.8651077048303 396.60091968722924Q1175.8651077048303 403.6184633903298 1182.0054584450434 403.6184633903298L1182.0054584450434 403.6184633903298Q1184.9781679303846 403.6184633903298 1189.9001951110315 401.15744980000636L1189.9001951110315 401.15744980000636Q1197.600000007489 397.112615582247 1204.4469784122502 390.02197246557245Q1211.2939568170116 382.90696287770663 1216.7276798926762 375.0122262117185L1216.7276798926762 375.0122262117185Q1217.6048728555638 373.96446795049167 1218.3115005201123 373.96446795049167L1218.3115005201123 373.96446795049167Q1219.7247558492088 373.96446795049167 1218.6526311167906 375.8894191746061L1218.6526311167906 375.8894191746061Q1213.218908041126 384.49078350514253 1206.3719296363647 391.58142662181706Q1199.5493177027947 398.6964362096829 1191.1185186705975 403.6184633903298L1191.1185186705975 403.6184633903298Q1186.0259261916112 406.591172875671 1181.6399613771737 406.591172875671Z " fill="#fbeaeb" transform="matrix(0.7087102682717955,0,0,0.7087102682717954,0,41.13249545941359)"/></g></svg>